<?xml version="1.0" encoding="utf-8"?>
<svg viewBox="0.944 0 1276.091 256" width="1276.091px" height="256px" xmlns="http://www.w3.org/2000/svg">
  <rect fill="white" height="256" rx="20" width="256" x="0.944" transform="matrix(1, 0, 0, 1, 0, -3.552713678800501e-15)"/>
  <path clip-rule="evenodd" d="M 150.99 200.475 L 150.99 228.095 C 155.482 230.397 160.795 232.123 166.928 233.274 C 173.061 234.425 179.525 235 186.321 235 C 192.943 235 199.235 234.367 205.195 233.101 C 211.155 231.835 216.382 229.749 220.873 226.844 C 225.365 223.938 228.921 220.14 231.542 215.45 C 234.162 210.761 235.472 204.964 235.472 198.059 C 235.472 193.053 234.723 188.665 233.226 184.896 C 231.729 181.127 229.569 177.775 226.747 174.841 C 223.926 171.906 220.542 169.274 216.598 166.943 C 212.653 164.613 208.204 162.412 203.251 160.341 C 199.623 158.844 196.37 157.392 193.49 155.982 C 190.611 154.572 188.163 153.134 186.148 151.666 C 184.132 150.199 182.577 148.645 181.483 147.005 C 180.389 145.365 179.842 143.51 179.842 141.438 C 179.842 139.539 180.331 137.828 181.31 136.303 C 182.289 134.778 183.672 133.469 185.457 132.376 C 187.242 131.282 189.43 130.434 192.022 129.829 C 194.613 129.225 197.493 128.923 200.66 128.923 C 202.964 128.923 205.397 129.096 207.959 129.441 C 210.522 129.786 213.099 130.318 215.691 131.038 C 218.282 131.757 220.801 132.663 223.249 133.757 C 225.696 134.85 227.957 136.116 230.03 137.554 L 230.03 111.747 C 225.826 110.136 221.233 108.942 216.252 108.165 C 211.271 107.388 205.555 107 199.105 107 C 192.54 107 186.321 107.705 180.447 109.115 C 174.573 110.524 169.404 112.725 164.941 115.717 C 160.478 118.71 156.951 122.522 154.359 127.154 C 151.768 131.786 150.472 137.324 150.472 143.769 C 150.472 151.997 152.847 159.017 157.599 164.829 C 162.35 170.64 169.562 175.56 179.237 179.588 C 183.038 181.142 186.58 182.666 189.862 184.163 C 193.145 185.659 195.981 187.212 198.371 188.823 C 200.761 190.434 202.647 192.189 204.029 194.088 C 205.411 195.987 206.102 198.145 206.102 200.562 C 206.102 202.345 205.67 204 204.806 205.525 C 203.943 207.049 202.632 208.373 200.876 209.495 C 199.12 210.617 196.931 211.494 194.311 212.127 C 191.691 212.76 188.624 213.077 185.111 213.077 C 179.122 213.077 173.191 212.027 167.317 209.926 C 161.442 207.826 156 204.676 150.99 200.475 L 150.99 200.475 Z M 104.954 131.742 L 140.472 131.742 L 140.472 109 L 41.472 109 L 41.472 131.742 L 76.817 131.742 L 76.817 233 L 104.954 233 L 104.954 131.742 Z" fill="#191c1e" fill-rule="evenodd" transform="matrix(1, 0, 0, 1, 0, -3.552713678800501e-15)"/>
  <path clip-rule="evenodd" d="M 788.544 186.391 L 788.544 173.119 C 800.658 180.792 812.928 184.628 825.358 184.628 C 838.572 184.628 848.602 181.908 855.446 176.467 C 862.289 171.025 865.711 163.412 865.711 153.624 C 865.711 145.014 863.41 138.143 858.809 133.015 C 854.371 128.071 844.942 121.397 830.52 112.994 L 828.897 112.053 C 811.749 102.109 800.893 93.792 796.331 87.098 C 791.769 80.404 789.488 72.673 789.488 63.904 C 789.488 52.004 794.128 41.904 803.411 33.606 C 812.694 25.307 825.082 21.158 840.578 21.158 C 850.647 21.158 860.716 22.841 870.784 26.208 L 870.784 38.422 C 860.872 33.959 850.293 31.727 839.044 31.727 C 827.56 31.727 818.454 34.624 811.729 40.418 C 805.003 46.21 801.64 53.57 801.64 62.495 C 801.64 71.107 803.941 77.956 808.544 83.046 C 813.145 88.134 823.076 95.064 838.337 103.833 C 854.147 112.757 864.669 120.685 869.899 127.612 C 875.131 134.543 877.746 142.509 877.746 151.51 C 877.746 164.43 873.242 174.96 864.235 183.101 C 855.229 191.245 842.505 195.315 826.065 195.315 C 820.244 195.315 813.538 194.415 805.947 192.613 C 798.357 190.814 792.555 188.738 788.544 186.391 Z M 369.188 47.725 L 417.573 47.725 L 417.573 23.989 L 292.972 23.989 L 292.972 47.725 L 341.239 47.725 L 341.239 192.483 L 369.188 192.483 L 369.188 47.725 Z M 462.175 211.748 L 516.687 72.13 L 489.077 72.13 L 458.871 159.802 C 458.155 162.49 457.593 164.678 457.186 166.367 L 456.747 168.264 L 456.157 168.264 C 455.528 165.577 455.026 163.48 454.654 161.97 L 454.033 159.568 L 425.243 72.13 L 394.918 72.13 L 442.942 192.239 L 434.8 211.983 C 429.766 222.011 422.135 227.026 411.91 227.026 C 408.37 227.026 404.436 226.32 400.111 224.911 L 400.111 247.592 C 403.964 248.61 408.763 249.12 414.505 249.12 C 434.958 249.12 450.847 236.663 462.175 211.748 Z M 561.497 174.651 L 561.025 174.651 L 561.025 247.705 L 533.678 247.705 L 533.678 72.118 L 561.025 72.118 L 561.025 93.258 L 561.497 93.258 C 570.847 77.284 584.521 69.298 602.517 69.298 C 617.84 69.298 629.785 74.663 638.351 85.389 C 646.916 96.116 651.199 110.523 651.199 128.61 C 651.199 148.655 646.367 164.705 636.7 176.765 C 627.036 188.823 613.834 194.852 597.094 194.852 C 581.692 194.852 569.827 188.118 561.497 174.651 Z M 560.58 142.769 L 560.58 127.933 C 560.58 117.654 563.545 109.087 569.473 102.232 C 575.4 95.379 583.231 91.953 592.966 91.953 C 602.153 91.953 609.436 95.282 614.813 101.941 C 620.192 108.6 622.881 117.809 622.881 129.568 C 622.881 143.588 619.995 154.51 614.225 162.335 C 608.455 170.163 600.505 174.076 590.376 174.076 C 581.741 174.076 574.615 171.039 569.001 164.965 C 563.387 158.891 560.58 151.491 560.58 142.769 Z M 774.384 139.713 L 692.819 139.713 C 693.132 150.841 696.54 159.422 703.045 165.456 C 709.55 171.491 718.488 174.508 729.862 174.508 C 742.639 174.508 754.363 170.668 765.037 162.988 L 765.037 184.971 C 754.129 191.867 739.717 195.315 721.799 195.315 C 704.193 195.315 690.385 189.848 680.374 178.916 C 670.364 167.983 665.359 152.604 665.359 132.777 C 665.359 114.048 670.87 98.785 681.894 86.99 C 692.916 75.196 706.609 69.298 722.968 69.298 C 739.328 69.298 751.987 74.588 760.945 85.168 C 769.904 95.748 774.384 110.442 774.384 129.25 L 774.384 139.713 Z M 742.024 97.322 C 746.529 102.79 748.82 110.439 748.898 120.271 L 693.677 120.271 C 694.92 110.989 698.24 103.478 703.638 97.734 C 709.035 91.992 715.618 89.121 723.385 89.121 C 731.306 89.121 737.52 91.856 742.024 97.322 Z M 946.994 195.315 C 959.473 195.315 970.214 192.576 979.218 187.102 L 979.218 175.838 C 970.214 182.252 959.632 185.459 947.468 185.459 C 934.199 185.459 923.518 180.727 915.423 171.261 C 907.326 161.796 903.278 149.28 903.278 133.714 C 903.278 117.601 907.701 104.48 916.548 94.349 C 925.394 84.219 936.924 79.155 951.14 79.155 C 961.488 79.155 971.005 81.813 979.692 87.134 L 979.692 74.931 C 971.005 71.176 962.04 69.298 952.799 69.298 C 934.949 69.298 920.339 75.379 908.966 87.544 C 897.592 99.708 891.905 115.333 891.905 134.42 C 891.905 152.567 896.96 167.253 907.07 178.477 C 917.179 189.703 930.488 195.315 946.994 195.315 Z M 1050.488 82.986 C 1046.892 80.39 1042.671 79.093 1037.824 79.093 C 1028.364 79.093 1020.431 84.009 1014.02 93.841 C 1007.61 103.674 1004.404 117.637 1004.404 135.729 L 1004.404 192.483 L 993.851 192.483 L 993.851 71.659 L 1004.404 71.659 L 1004.404 98.442 L 1004.874 98.442 C 1007.61 89.238 1011.949 82.081 1017.89 76.968 C 1023.83 71.856 1030.711 69.298 1038.528 69.298 C 1042.984 69.298 1046.971 70.006 1050.488 71.423 L 1050.488 82.986 Z M 1067.397 39.733 C 1069.229 41.508 1071.34 42.396 1073.732 42.396 C 1076.281 42.396 1078.473 41.469 1080.304 39.611 C 1082.138 37.755 1083.054 35.535 1083.054 32.951 C 1083.054 30.206 1082.118 28.026 1080.245 26.412 C 1078.373 24.797 1076.201 23.989 1073.732 23.989 C 1071.421 23.989 1069.329 24.817 1067.456 26.472 C 1065.583 28.128 1064.647 30.287 1064.647 32.951 C 1064.647 35.696 1065.564 37.956 1067.397 39.733 Z M 1067.479 192.483 L 1067.479 72.13 L 1078.807 72.13 L 1078.807 192.483 L 1067.479 192.483 Z M 1115.088 171.06 L 1115.557 171.06 C 1124.162 187.257 1137.459 195.357 1155.45 195.357 C 1171.564 195.357 1184.529 189.155 1194.345 176.753 C 1204.162 164.35 1209.071 148.095 1209.071 127.984 C 1209.071 109.909 1204.787 95.609 1196.223 85.084 C 1187.658 74.56 1175.749 69.298 1160.495 69.298 C 1150.873 69.298 1142.054 71.704 1134.038 76.517 C 1126.018 81.33 1119.859 88.156 1115.557 96.998 L 1115.088 96.998 L 1115.088 72.233 L 1104.293 72.233 L 1104.293 247.705 L 1115.088 247.705 L 1115.088 171.06 Z M 1115.621 126.329 L 1115.621 141.45 C 1115.621 153.483 1119.452 163.816 1127.114 172.452 C 1134.777 181.086 1144.85 185.404 1157.33 185.404 C 1169.733 185.404 1179.806 180.149 1187.547 169.639 C 1195.288 159.129 1199.16 145.318 1199.16 128.205 C 1199.16 113.202 1195.604 101.286 1188.495 92.454 C 1181.385 83.625 1171.906 79.21 1160.056 79.21 C 1145.916 79.21 1134.975 83.898 1127.233 93.276 C 1119.491 102.652 1115.621 113.671 1115.621 126.329 Z M 1261.281 195.315 C 1266.181 195.315 1271.433 193.987 1277.035 191.331 L 1277.035 181.251 C 1271.901 184.142 1267.117 185.588 1262.682 185.588 C 1256.457 185.588 1252.042 183.731 1249.436 180.02 C 1246.831 176.309 1245.527 170.313 1245.527 162.03 L 1245.527 82.802 L 1277.035 82.802 L 1277.035 72.958 L 1245.527 72.958 L 1245.527 38.149 C 1243.815 38.774 1242.026 39.361 1240.159 39.906 C 1238.291 40.531 1236.503 41.158 1234.792 41.781 L 1234.792 72.958 L 1213.319 72.958 L 1213.319 82.802 L 1234.792 82.802 L 1234.792 163.436 C 1234.792 184.689 1243.621 195.315 1261.281 195.315 Z" fill="white" fill-rule="evenodd" style="" transform="matrix(1, 0, 0, 1, 0, -3.552713678800501e-15)"/>
</svg>